<?xml version="1.0" encoding="utf-8"?>
<!-- Generator: Adobe Illustrator 16.0.0, SVG Export Plug-In . SVG Version: 6.00 Build 0)  -->
<!DOCTYPE svg PUBLIC "-//W3C//DTD SVG 1.1//EN" "http://www.w3.org/Graphics/SVG/1.1/DTD/svg11.dtd">
<svg version="1.1" id="Capa_1" xmlns="http://www.w3.org/2000/svg" xmlns:xlink="http://www.w3.org/1999/xlink" x="0px" y="0px"
	 width="296.5px" height="100px" viewBox="0 0 296.5 100" enable-background="new 0 0 296.5 100" xml:space="preserve">
<path fill="#FFFFFF" d="M57.742,77.133c0,0-9.996,3.498-14.894,1.998l1.699-1.998c0,0-5.198-0.801-12.495-6.998l8.997-2.699
	c0,0-8.896-7.797-10.696-11.795l3.299-1.6c0,0-2.699-4.199-1.299-16.994c0,0,6.598,11.495,11.696,13.194l2.099-1.399
	c0,0,4.398,6.998,8.197,16.095l0.1-4.299c0,0-5.498-8.697-6.797-10.796l1-0.3c0,0-1.5-9.296-3.699-11.496c0,0,3.799,0.6,8.597,2.999
	c0,0,0.5-7.597-0.9-9.496c0,0,2.699-0.2,3.299,0.599c0,0,1-5.697,0.8-10.696c0,0,7.497,5.198,7.597,10.496
	c0,0,1.399-0.899,2.898-0.6c0,0,0.2,7.797,0,10.496c0,0,2.833-5.365,7.631-5.631c0,0-1.199,7.331-4.132,12.929l1.2,0.533
	c0,0-5.198,3.199-6.664,14.127c0,0,9.462-7.597,9.596-10.662c0,0,1.732,1.199,2.266,2.398c0,0,2.799-3.857,4.665-5.062
	c0,0-0.266,1.47,2,0c0.799-0.403,7.062-4.001,4.931-6.667c0,0,2.265,0.266-1.866,12.26l1.466,0.802c0,0-1.199,2.267-4.531,5.997
	l2.665,2c0,0-3.332,3.197-10.663,6.531c0,0,2.132,3.197,7.062,5.197C82.866,76.6,72.336,82.861,57.742,77.133z"/>
<g>
	<path fill="#FFFFFF" d="M105.504,46.85l2.917,8.354c0.491,1.351,0.89,2.579,1.197,3.808h0.092c0.338-1.229,0.768-2.457,1.259-3.808
		l2.886-8.354h2.825l-5.834,14.863h-2.58l-5.65-14.863H105.504z"/>
	<path fill="#FFFFFF" d="M122.238,42.674c0.031,0.921-0.645,1.659-1.72,1.659c-0.952,0-1.627-0.737-1.627-1.659
		c0-0.952,0.707-1.689,1.689-1.689C121.594,40.985,122.238,41.722,122.238,42.674z M119.229,61.713V46.85h2.702v14.863H119.229z"/>
	<path fill="#FFFFFF" d="M126.045,58.949c0.798,0.521,2.211,1.074,3.562,1.074c1.966,0,2.887-0.982,2.887-2.211
		c0-1.289-0.768-1.996-2.764-2.732c-2.672-0.953-3.931-2.426-3.931-4.207c0-2.395,1.935-4.361,5.129-4.361
		c1.504,0,2.825,0.43,3.653,0.921l-0.675,1.965c-0.583-0.368-1.658-0.859-3.04-0.859c-1.597,0-2.487,0.921-2.487,2.025
		c0,1.229,0.891,1.781,2.825,2.52c2.579,0.982,3.9,2.271,3.9,4.482c0,2.609-2.027,4.453-5.558,4.453
		c-1.628,0-3.132-0.398-4.176-1.014L126.045,58.949z"/>
	<path fill="#FFFFFF" d="M141.583,42.674c0.031,0.921-0.645,1.659-1.719,1.659c-0.952,0-1.628-0.737-1.628-1.659
		c0-0.952,0.707-1.689,1.689-1.689C140.938,40.985,141.583,41.722,141.583,42.674z M138.573,61.713V46.85h2.703v14.863H138.573z"/>
	<path fill="#FFFFFF" d="M149.013,42.582v4.268h3.869v2.058h-3.869v8.016c0,1.842,0.521,2.887,2.027,2.887
		c0.707,0,1.228-0.092,1.565-0.186l0.123,2.027c-0.522,0.215-1.351,0.369-2.395,0.369c-1.259,0-2.272-0.399-2.917-1.137
		c-0.768-0.8-1.044-2.119-1.044-3.871v-8.106h-2.303V46.85h2.303v-3.562L149.013,42.582z"/>
	<path fill="#FFFFFF" d="M164.151,61.713l-0.215-1.873h-0.092c-0.829,1.166-2.426,2.211-4.545,2.211
		c-3.009,0-4.544-2.119-4.544-4.27c0-3.592,3.194-5.557,8.936-5.526v-0.308c0-1.229-0.338-3.439-3.377-3.439
		c-1.382,0-2.826,0.43-3.87,1.104l-0.614-1.782c1.229-0.798,3.009-1.32,4.883-1.32c4.545,0,5.65,3.102,5.65,6.081v5.559
		c0,1.289,0.062,2.549,0.246,3.562L164.151,61.713L164.151,61.713z M163.751,54.127c-2.948-0.061-6.295,0.463-6.295,3.348
		c0,1.752,1.167,2.58,2.549,2.58c1.935,0,3.163-1.229,3.593-2.486c0.092-0.276,0.153-0.584,0.153-0.86V54.127z"/>
	<path fill="#FFFFFF" d="M175.573,42.397v4.299h3.347v3.439h-3.347v5.435c0,1.812,0.43,2.642,1.842,2.642
		c0.583,0,1.044-0.062,1.382-0.122l0.031,3.531c-0.614,0.244-1.719,0.398-3.041,0.398c-1.504,0-2.764-0.521-3.5-1.289
		c-0.859-0.893-1.29-2.334-1.29-4.453v-6.142h-1.996v-3.439h1.996V43.44L175.573,42.397z"/>
	<path fill="#FFFFFF" d="M196.3,54.035c0,5.496-3.9,8.016-7.922,8.016c-4.391,0-7.77-2.887-7.77-7.738s3.194-7.954,8.015-7.954
		C193.229,46.358,196.3,49.521,196.3,54.035z M185.429,54.189c0,2.58,1.075,4.514,3.071,4.514c1.812,0,2.979-1.812,2.979-4.514
		c0-2.242-0.86-4.514-2.979-4.514C186.259,49.675,185.429,51.979,185.429,54.189z"/>
	<path fill="#FFFFFF" d="M199.185,51.641c0-2.21-0.062-3.654-0.123-4.944h4.022l0.154,2.764h0.123
		c0.767-2.18,2.61-3.102,4.053-3.102c0.43,0,0.645,0,0.983,0.062v4.392c-0.338-0.062-0.737-0.123-1.259-0.123
		c-1.72,0-2.887,0.92-3.194,2.363c-0.062,0.309-0.092,0.676-0.092,1.045v7.615h-4.668L199.185,51.641L199.185,51.641z"/>
	<path fill="#FFFFFF" d="M225.439,54.035c0,5.496-3.9,8.016-7.922,8.016c-4.391,0-7.77-2.887-7.77-7.738s3.194-7.954,8.015-7.954
		C222.369,46.358,225.439,49.521,225.439,54.035z M214.568,54.189c0,2.58,1.075,4.514,3.071,4.514c1.812,0,2.979-1.812,2.979-4.514
		c0-2.242-0.859-4.514-2.979-4.514C215.398,49.675,214.568,51.979,214.568,54.189z"/>
	<path fill="#FFFFFF" d="M228.324,51.486c0-1.874-0.062-3.47-0.122-4.791h4.055l0.214,2.057h0.092
		c0.614-0.952,2.15-2.396,4.638-2.396c3.07,0,5.374,2.027,5.374,6.45v8.904h-4.667v-8.322c0-1.934-0.675-3.254-2.365-3.254
		c-1.289,0-2.057,0.891-2.364,1.75c-0.123,0.275-0.185,0.736-0.185,1.166v8.66h-4.668L228.324,51.486L228.324,51.486z"/>
	<path fill="#FFFFFF" d="M251.354,42.397v4.299h3.347v3.439h-3.347v5.435c0,1.812,0.43,2.642,1.842,2.642
		c0.583,0,1.045-0.062,1.382-0.122l0.031,3.531c-0.614,0.244-1.72,0.398-3.041,0.398c-1.504,0-2.763-0.521-3.5-1.289
		c-0.86-0.893-1.29-2.334-1.29-4.453v-6.142h-1.996v-3.439h1.996V43.44L251.354,42.397z"/>
	<path fill="#FFFFFF" d="M272.081,54.035c0,5.496-3.9,8.016-7.923,8.016c-4.392,0-7.769-2.887-7.769-7.738s3.194-7.954,8.015-7.954
		C269.01,46.358,272.081,49.521,272.081,54.035z M261.21,54.189c0,2.58,1.075,4.514,3.071,4.514c1.812,0,2.979-1.812,2.979-4.514
		c0-2.242-0.86-4.514-2.979-4.514C262.04,49.675,261.21,51.979,261.21,54.189z"/>
</g>
</svg>
